# xmcd
#
# Track frame offsets:
#	182
#	13937
#	28495
#	44002
#	57845
#	73550
#	86555
#	104457
#	120292
#	137920
#
# Disc length: 2032 seconds
#
# Revision: 5
# Processed by: cddbd v1.5.1PL2 Copyright (c) Steve Scherf et al.
# Submitted via: dBpowerAMP V4.0
#
DISCID=8e07ee0a
DTITLE=Oak Ridge Boys - Greatest Hits - Volume 3
DYEAR=1989
DGENRE=Country
TTITLE0=Gonna Take A Lot Of River
TTITLE1=True Heart
TTITLE2=Little Things
TTITLE3=This Crazy Love
TTITLE4=Come On In (You Did The Best You Could Do)
TTITLE5=Bobbie Sue
TTITLE6=It Takes A Litlle Rain (To Make Love Grow)
TTITLE7=Touch A Hand, Make A Friend
TTITLE8=Bridges And Walls
TTITLE9=Take Pride In America
EXTD=
EXTT0=
EXTT1=
EXTT2=
EXTT3=
EXTT4=
EXTT5=
EXTT6=
EXTT7=
EXTT8=
EXTT9=
PLAYORDER=
